<svg width="277" height="131" viewBox="0 0 277 131" xmlns="http://www.w3.org/2000/svg"><g fill="none" fill-rule="evenodd"><path d="M275.278 53.62c-1.346 10.782-8.642 30.768-12.506 38.754-10.402 21.416-24.29 37.873-51.036 37.873-14.29 0-26.048-4.57-32.922-13.317-10.065 8.815-22.53 13.438-35.94 13.438-10.347 0-19.477-2.984-26.438-8.505-7.693 5.417-18.06 8.436-29.563 8.436-9.6 0-18.238-2.634-25.004-7.507-7.48 4.96-17.28 7.427-28.794 7.15C13.93 129.493.706 117.35.326 99.72c-.503-23.426 19.227-66.3 28.53-81.154C35.807 7.14 46.435.996 59.44.996c14.125 0 19.248 4.04 21.762 9.17 10.902-9.263 25.35-9.79 35.63-9.79 11.36 0 18.48 3.01 24.54 7.84 8.374-5.02 17.966-7.624 29.403-7.624 14.627 0 25.48 3.398 33.05 10.885C212.66 4.12 223.735.772 236.112.772c16.38 0 27.152 5.91 33.483 14.707 8.91 12.42 7.324 24.925 5.685 38.14z" fill="#FF0"/><path d="M266.93 42.244c-.5 9.238-3.433 20.744-6.02 28.43-10.428 30.973-22.513 50.163-50.492 50.163-8.237 0-22.865-2.182-28.238-16.836l-1.286-3.482-2.293 2.907c-8.744 11.092-21.75 17.49-35.672 17.553-10.678.05-19.265-3.528-24.81-10.342l-1.527-1.88-1.62 1.784c-5.932 6.546-16.256 10.3-28.33 10.3-9.48 0-17.666-3.21-23.05-9.058l-1.468-1.603-1.53 1.55c-5.984 6.037-15.416 9.082-27.28 8.814-14.396-.345-23.16-8.384-23.44-21.502-.434-20.228 19.14-62.792 27.25-75.73 5.262-8.642 12.494-12.832 22.12-12.832 6.555 0 11.03 1.37 13.7 4.19 2.42 2.57 2.903 4.736 3.114 9.937l.285 6.728 3.55-5.72c8.596-13.85 22.83-15.757 36.947-15.757 9.812 0 18.372 3.605 21.81 9.194l1.27 2.054 1.838-1.562c7.27-6.184 17.535-9.59 28.886-9.59 12.396 0 21.408 3.08 26.78 9.168 1.218 1.38 2.028 2.346 3.15 4.7l1.38 2.9 2.078-2.45c7.857-9.308 18.604-14.026 31.94-14.026 10.556 0 18.56 2.803 23.803 8.332 6.59 6.944 7.53 16.708 7.16 23.668z" fill="#FFF"/><path d="M237.948 41.65c-.31 7.676-11.558 38.373-15.55 45.143-1.734 2.94-3.684 5.365-7.203 5.356-3.07 0-4.434-2.177-4.52-4.66-.225-6.927 12.49-41.65 16.837-47.3 1.93-2.977 4.087-3.46 6.555-3.425 3.606.044 3.967 2.65 3.88 4.882zm20.494 12.532c-2.553 12.722-8.298 27.772-14.543 38.986-10.18 18.302-22.54 20.863-33.33 20.734-10.78-.13-22.96-4.113-23.047-20.76-.068-11.956 5.09-28.827 9.472-39.884 7.624-20.054 15.42-36.398 40.07-36.105 28.74.337 23.618 25.902 21.375 37.03zm-91.263-17.83c-4.17 0-6.886 2.632-8.91 5.478-4.45 6.253-14.11 31.326-15.61 41.625-1.02 7.056 2.015 8.487 5.352 8.487 5.34 0 11.325-5.65 13.368-14.973 0 0-10.17-.254-7.364-9.268 2.718-8.754 7.893-10.643 16.457-10.997 16.88-.69 15.207 11.773 13.86 18.415-4.382 21.58-19.742 38.918-41.47 38.918-14.874 0-24.103-8.238-24.103-23.4 0-10.8 5.362-27.765 9.61-37.692 9.043-21.132 18.53-35.924 42.7-35.924 14.497 0 25.935 5.21 24.253 18.794-1.225 9.97-6.21 15.827-15.275 16.534-2.536.198-12.912-.07-9.47-9.884 1.198-3.424 1.698-6.115-3.4-6.115zM91.563 73.72c-1 2.7-2.88 8.332-4.398 14.31 4.93-1.226 8.63-2.096 14.97-1.933 7.227.172 11.846 3.175 11.846 9.143 0 14.48-16.004 18.734-27.11 18.734-12.195 0-22.9-6.944-22.9-20.27 0-15.638 8.47-39.33 16.42-55.115C90.16 19.2 100.14 16.62 117.32 16.62c7.553 0 16.25 3.226 16.25 10.35 0 9.885-8.37 13.654-16.676 14.137-3.54.198-8.996.396-12.256.164 0 0-2.766 4.22-5.707 11.714 15.377-2.165 21.898 1.33 19.3 10.22-3.506 12.008-13.92 12.802-26.665 10.516zM42.6 87.612c15.04-2.612 18.822 2.83 18.343 7.85-1.41 15.076-15.24 18.44-27.247 18.164-8.707-.207-16.535-4.19-16.754-14.3-.38-17.682 17.656-58.59 26.15-72.15 3.917-6.442 8.695-9.617 16.316-9.617 7.215 0 9.01 3.7 8.9 8.14-.28 11.84-19.428 47.843-25.708 61.91zM235.966 8.175c-15.525 0-26.255 6.158-33.518 14.75-1.225-2.57-2.165-3.7-3.476-5.185-5.942-6.72-15.508-9.86-28.333-9.86-12.534 0-22.98 3.917-30.23 10.084-3.77-6.124-12.747-10.187-23.576-10.187-14.15 0-29.56 2.01-38.71 16.742-.21-5.308-.698-8.11-3.682-11.276-3.622-3.83-9.487-4.84-15.2-4.84-10.416 0-18.248 4.547-23.885 13.81C27.18 35.284 7.35 78.274 7.802 99.087c.28 13.454 9.307 23.14 25.453 23.52 12.62.302 22.512-3.07 28.808-9.42 5.646 6.125 14.266 9.73 24.574 9.73 11.48 0 23.042-3.44 29.87-10.98 5.752 7.056 14.795 11.162 26.427 11.11 15.215-.07 28.566-7.28 37.296-18.338 4.777 13.03 16.922 18.206 30.188 18.206 29.067 0 41.823-19.976 52.458-51.58 2.398-7.124 5.59-19 6.125-28.98.88-16.61-6.15-34.18-33.033-34.18z" fill="#000"/></g></svg>